<mxfile host="app.diagrams.net" agent="Mozilla/5.0 (Windows NT 10.0; Win64; x64; rv:137.0) Gecko/20100101 Firefox/137.0" version="27.0.5">
  <diagram name="Page-1" id="6NiLfrlfZQQS98wHufTn">
    <mxGraphModel dx="1048" dy="628" grid="1" gridSize="10" guides="1" tooltips="1" connect="1" arrows="1" fold="1" page="1" pageScale="1" pageWidth="850" pageHeight="1100" math="0" shadow="0">
      <root>
        <mxCell id="0" />
        <mxCell id="1" parent="0" />
        <mxCell id="2OPPoaKtOq8zMLbIdzvj-1" value="INICIO" style="rounded=1;whiteSpace=wrap;html=1;" vertex="1" parent="1">
          <mxGeometry x="360" y="30" width="120" height="60" as="geometry" />
        </mxCell>
        <mxCell id="2OPPoaKtOq8zMLbIdzvj-9" value="" style="edgeStyle=orthogonalEdgeStyle;rounded=0;orthogonalLoop=1;jettySize=auto;html=1;" edge="1" parent="1" source="2OPPoaKtOq8zMLbIdzvj-2" target="2OPPoaKtOq8zMLbIdzvj-3">
          <mxGeometry relative="1" as="geometry" />
        </mxCell>
        <mxCell id="2OPPoaKtOq8zMLbIdzvj-2" value="Leer numero n" style="rounded=0;whiteSpace=wrap;html=1;" vertex="1" parent="1">
          <mxGeometry x="360" y="120" width="120" height="60" as="geometry" />
        </mxCell>
        <mxCell id="2OPPoaKtOq8zMLbIdzvj-3" value="¿n&amp;lt;2?" style="rhombus;whiteSpace=wrap;html=1;" vertex="1" parent="1">
          <mxGeometry x="380" y="210" width="80" height="80" as="geometry" />
        </mxCell>
        <mxCell id="2OPPoaKtOq8zMLbIdzvj-29" value="" style="edgeStyle=orthogonalEdgeStyle;rounded=0;orthogonalLoop=1;jettySize=auto;html=1;" edge="1" parent="1" source="2OPPoaKtOq8zMLbIdzvj-4" target="2OPPoaKtOq8zMLbIdzvj-5">
          <mxGeometry relative="1" as="geometry" />
        </mxCell>
        <mxCell id="2OPPoaKtOq8zMLbIdzvj-4" value="Inicializar lista es_primo con true " style="rounded=0;whiteSpace=wrap;html=1;" vertex="1" parent="1">
          <mxGeometry x="240" y="320" width="120" height="60" as="geometry" />
        </mxCell>
        <mxCell id="2OPPoaKtOq8zMLbIdzvj-14" value="" style="edgeStyle=orthogonalEdgeStyle;rounded=0;orthogonalLoop=1;jettySize=auto;html=1;entryX=0.5;entryY=0;entryDx=0;entryDy=0;" edge="1" parent="1" source="2OPPoaKtOq8zMLbIdzvj-5" target="2OPPoaKtOq8zMLbIdzvj-15">
          <mxGeometry relative="1" as="geometry" />
        </mxCell>
        <mxCell id="2OPPoaKtOq8zMLbIdzvj-30" value="" style="edgeStyle=orthogonalEdgeStyle;rounded=0;orthogonalLoop=1;jettySize=auto;html=1;" edge="1" parent="1" source="2OPPoaKtOq8zMLbIdzvj-5" target="2OPPoaKtOq8zMLbIdzvj-4">
          <mxGeometry relative="1" as="geometry" />
        </mxCell>
        <mxCell id="2OPPoaKtOq8zMLbIdzvj-5" value="Marcar 0 y 1 como no primo" style="rounded=0;whiteSpace=wrap;html=1;" vertex="1" parent="1">
          <mxGeometry x="240" y="410" width="120" height="60" as="geometry" />
        </mxCell>
        <mxCell id="2OPPoaKtOq8zMLbIdzvj-6" value="¿es_primo [i]?" style="rounded=0;whiteSpace=wrap;html=1;" vertex="1" parent="1">
          <mxGeometry x="360" y="680" width="120" height="60" as="geometry" />
        </mxCell>
        <mxCell id="2OPPoaKtOq8zMLbIdzvj-7" value="" style="endArrow=classic;html=1;rounded=0;exitX=0.5;exitY=1;exitDx=0;exitDy=0;entryX=0.5;entryY=0;entryDx=0;entryDy=0;" edge="1" parent="1" source="2OPPoaKtOq8zMLbIdzvj-1" target="2OPPoaKtOq8zMLbIdzvj-2">
          <mxGeometry width="50" height="50" relative="1" as="geometry">
            <mxPoint x="320" y="350" as="sourcePoint" />
            <mxPoint x="370" y="300" as="targetPoint" />
          </mxGeometry>
        </mxCell>
        <mxCell id="2OPPoaKtOq8zMLbIdzvj-8" value="" style="endArrow=classic;html=1;rounded=0;exitX=0;exitY=0.5;exitDx=0;exitDy=0;entryX=0.5;entryY=0;entryDx=0;entryDy=0;" edge="1" parent="1" source="2OPPoaKtOq8zMLbIdzvj-3" target="2OPPoaKtOq8zMLbIdzvj-4">
          <mxGeometry width="50" height="50" relative="1" as="geometry">
            <mxPoint x="320" y="350" as="sourcePoint" />
            <mxPoint x="300" y="310" as="targetPoint" />
            <Array as="points">
              <mxPoint x="300" y="250" />
            </Array>
          </mxGeometry>
        </mxCell>
        <mxCell id="2OPPoaKtOq8zMLbIdzvj-12" value="" style="endArrow=classic;html=1;rounded=0;exitX=0.5;exitY=1;exitDx=0;exitDy=0;entryX=0.5;entryY=0;entryDx=0;entryDy=0;" edge="1" parent="1" source="2OPPoaKtOq8zMLbIdzvj-4" target="2OPPoaKtOq8zMLbIdzvj-5">
          <mxGeometry width="50" height="50" relative="1" as="geometry">
            <mxPoint x="310" y="350" as="sourcePoint" />
            <mxPoint x="360" y="300" as="targetPoint" />
          </mxGeometry>
        </mxCell>
        <mxCell id="2OPPoaKtOq8zMLbIdzvj-15" value="&lt;div&gt;Para i desde 2&lt;/div&gt;&lt;div&gt;&amp;nbsp;hasta √n&lt;/div&gt;" style="rhombus;whiteSpace=wrap;html=1;" vertex="1" parent="1">
          <mxGeometry x="240" y="510" width="120" height="120" as="geometry" />
        </mxCell>
        <mxCell id="2OPPoaKtOq8zMLbIdzvj-16" value="marcar multiplos de&amp;nbsp; como no primos" style="rounded=0;whiteSpace=wrap;html=1;" vertex="1" parent="1">
          <mxGeometry x="360" y="770" width="120" height="60" as="geometry" />
        </mxCell>
        <mxCell id="2OPPoaKtOq8zMLbIdzvj-17" value="separar numeros en primos y no primos" style="rounded=0;whiteSpace=wrap;html=1;" vertex="1" parent="1">
          <mxGeometry x="120" y="770" width="120" height="60" as="geometry" />
        </mxCell>
        <mxCell id="2OPPoaKtOq8zMLbIdzvj-18" value="mostrar resultado" style="rounded=0;whiteSpace=wrap;html=1;" vertex="1" parent="1">
          <mxGeometry x="240" y="870" width="120" height="60" as="geometry" />
        </mxCell>
        <mxCell id="2OPPoaKtOq8zMLbIdzvj-19" value="FIN" style="rounded=1;whiteSpace=wrap;html=1;" vertex="1" parent="1">
          <mxGeometry x="240" y="980" width="120" height="60" as="geometry" />
        </mxCell>
        <mxCell id="2OPPoaKtOq8zMLbIdzvj-20" value="" style="endArrow=classic;html=1;rounded=0;exitX=1;exitY=0.5;exitDx=0;exitDy=0;entryX=0.5;entryY=0;entryDx=0;entryDy=0;" edge="1" parent="1" source="2OPPoaKtOq8zMLbIdzvj-15" target="2OPPoaKtOq8zMLbIdzvj-6">
          <mxGeometry width="50" height="50" relative="1" as="geometry">
            <mxPoint x="270" y="430" as="sourcePoint" />
            <mxPoint x="320" y="380" as="targetPoint" />
            <Array as="points">
              <mxPoint x="420" y="570" />
            </Array>
          </mxGeometry>
        </mxCell>
        <mxCell id="2OPPoaKtOq8zMLbIdzvj-21" value="" style="endArrow=classic;html=1;rounded=0;exitX=1;exitY=0.5;exitDx=0;exitDy=0;entryX=1;entryY=0.5;entryDx=0;entryDy=0;" edge="1" parent="1" source="2OPPoaKtOq8zMLbIdzvj-3" target="2OPPoaKtOq8zMLbIdzvj-18">
          <mxGeometry width="50" height="50" relative="1" as="geometry">
            <mxPoint x="490" y="250" as="sourcePoint" />
            <mxPoint x="600" y="900" as="targetPoint" />
            <Array as="points">
              <mxPoint x="600" y="250" />
              <mxPoint x="600" y="900" />
            </Array>
          </mxGeometry>
        </mxCell>
        <mxCell id="2OPPoaKtOq8zMLbIdzvj-25" value="" style="endArrow=classic;html=1;rounded=0;exitX=0.5;exitY=1;exitDx=0;exitDy=0;entryX=0.5;entryY=0;entryDx=0;entryDy=0;" edge="1" parent="1" source="2OPPoaKtOq8zMLbIdzvj-18" target="2OPPoaKtOq8zMLbIdzvj-19">
          <mxGeometry width="50" height="50" relative="1" as="geometry">
            <mxPoint x="270" y="850" as="sourcePoint" />
            <mxPoint x="320" y="800" as="targetPoint" />
          </mxGeometry>
        </mxCell>
        <mxCell id="2OPPoaKtOq8zMLbIdzvj-26" value="" style="endArrow=classic;html=1;rounded=0;exitX=0;exitY=0.5;exitDx=0;exitDy=0;" edge="1" parent="1">
          <mxGeometry width="50" height="50" relative="1" as="geometry">
            <mxPoint x="361" y="800" as="sourcePoint" />
            <mxPoint x="318" y="870" as="targetPoint" />
            <Array as="points">
              <mxPoint x="318" y="800" />
            </Array>
          </mxGeometry>
        </mxCell>
        <mxCell id="2OPPoaKtOq8zMLbIdzvj-27" value="" style="endArrow=classic;html=1;rounded=0;exitX=1;exitY=0.5;exitDx=0;exitDy=0;entryX=0.321;entryY=-0.013;entryDx=0;entryDy=0;entryPerimeter=0;" edge="1" parent="1" source="2OPPoaKtOq8zMLbIdzvj-17" target="2OPPoaKtOq8zMLbIdzvj-18">
          <mxGeometry width="50" height="50" relative="1" as="geometry">
            <mxPoint x="270" y="850" as="sourcePoint" />
            <mxPoint x="320" y="800" as="targetPoint" />
            <Array as="points">
              <mxPoint x="279" y="800" />
            </Array>
          </mxGeometry>
        </mxCell>
        <mxCell id="2OPPoaKtOq8zMLbIdzvj-28" value="" style="endArrow=classic;html=1;rounded=0;exitX=0;exitY=0.5;exitDx=0;exitDy=0;entryX=0.5;entryY=0;entryDx=0;entryDy=0;" edge="1" parent="1" source="2OPPoaKtOq8zMLbIdzvj-15" target="2OPPoaKtOq8zMLbIdzvj-17">
          <mxGeometry width="50" height="50" relative="1" as="geometry">
            <mxPoint x="150" y="770" as="sourcePoint" />
            <mxPoint x="200" y="720" as="targetPoint" />
            <Array as="points">
              <mxPoint x="180" y="570" />
            </Array>
          </mxGeometry>
        </mxCell>
        <mxCell id="2OPPoaKtOq8zMLbIdzvj-31" value="" style="endArrow=classic;html=1;rounded=0;exitX=0.5;exitY=1;exitDx=0;exitDy=0;" edge="1" parent="1" source="2OPPoaKtOq8zMLbIdzvj-6" target="2OPPoaKtOq8zMLbIdzvj-16">
          <mxGeometry width="50" height="50" relative="1" as="geometry">
            <mxPoint x="450" y="1010" as="sourcePoint" />
            <mxPoint x="500" y="960" as="targetPoint" />
          </mxGeometry>
        </mxCell>
      </root>
    </mxGraphModel>
  </diagram>
</mxfile>
